<svg xmlns="http://www.w3.org/2000/svg" viewBox="0 0 64 64">
  <defs>
    <linearGradient id="sw-bg" x1="0" y1="0" x2="1" y2="1">
      <stop offset="0" stop-color="#7c3aed"/>
      <stop offset="1" stop-color="#c026d3"/>
    </linearGradient>
  </defs>
  <rect width="64" height="64" rx="16" fill="url(#sw-bg)"/>
  <g fill="none" stroke="#ffffff" stroke-width="4" stroke-linecap="round" stroke-linejoin="round">
    <path d="M25 25a7 7 0 0 1 14 0"/>
    <path d="M17.5 30h29l-2.6 19.8a3.9 3.9 0 0 1-3.9 3.2H24a3.9 3.9 0 0 1-3.9-3.2L17.5 30Z"/>
    <path d="M15 46c3.6 0 3.6-2.6 7.2-2.6s3.6 2.6 7.2 2.6 3.6-2.6 7.2-2.6 3.6 2.6 7.2 2.6 3.6-2.6 7.2-2.6"/>
  </g>
</svg>
